<?xml version="1.0" encoding="utf-8"?>
<!-- Generator: Adobe Illustrator 19.0.0, SVG Export Plug-In . SVG Version: 6.00 Build 0)  -->
<svg version="1.1" id="Layer_1" xmlns="http://www.w3.org/2000/svg" xmlns:xlink="http://www.w3.org/1999/xlink" x="0px" y="0px"
	 viewBox="0 0 857.9 560" style="enable-background:new 0 0 857.9 560;" xml:space="preserve">
<style type="text/css">
	.st0{fill:#FFFFFF;}
	.st1{fill:#666666;}
	.st2{fill:none;stroke:#666666;stroke-miterlimit:10;}
</style>
<g id="XMLID_1_">
	<rect id="XMLID_53_" x="0.3" y="0.3" class="st0" width="856.7" height="559.3"/>
	<path id="XMLID_54_" class="st1" d="M857.9,560.5H-0.5v-561h858.4V560.5z M1.2,558.8h855V1.2H1.2V558.8z"/>
</g>
<g id="XMLID_2_">
	<rect id="XMLID_49_" x="836.8" y="82.6" class="st0" width="20.3" height="477.1"/>
	<path id="XMLID_50_" class="st1" d="M857.9,560.5h-22V81.7h22V560.5z M837.6,558.8h18.6V83.4h-18.6V558.8z"/>
</g>
<g id="XMLID_4_">
	<rect id="XMLID_45_" x="0.3" y="29.9" class="st0" width="856.7" height="52.7"/>
	<path id="XMLID_46_" class="st1" d="M857.9,83.4H-0.5V29.1h858.4V83.4z M1.2,81.7h855v-51H1.2V81.7z"/>
</g>
<g id="XMLID_3_">
	<rect id="XMLID_32_" x="836.8" y="82.6" class="st1" width="20.3" height="122.2"/>
	<path id="XMLID_42_" class="st1" d="M857.9,205.7h-22V81.7h22V205.7z M837.6,204h18.6V83.4h-18.6V204z"/>
</g>
<g id="XMLID_5_">
	<path id="XMLID_39_" class="st1" d="M795,68.8H187.1V42.3H795V68.8z M188.8,67.1h604.5V44H188.8V67.1z"/>
</g>
<g id="XMLID_9_">
	<g id="XMLID_6_">
		<path id="XMLID_38_" class="st1" d="M66.2,56h-22c-0.5,0-0.8-0.5-0.8-1s0.4-1,0.8-1h22c0.5,0,0.8,0.5,0.8,1S66.7,56,66.2,56z"/>
	</g>
	<g id="XMLID_7_">
		<path id="XMLID_37_" class="st1" d="M44.3,56c-0.2,0-0.4-0.1-0.6-0.2c-0.3-0.3-0.4-0.9,0-1.2l8.4-8.9c0.3-0.3,0.9-0.3,1.2,0
			c0.3,0.3,0.4,0.9,0,1.2l-8.4,8.9C44.7,55.9,44.5,56,44.3,56z"/>
	</g>
	<g id="XMLID_8_">
		<path id="XMLID_36_" class="st1" d="M52.7,64.8c-0.2,0-0.4-0.1-0.6-0.3l-8.4-8.9c-0.3-0.3-0.3-0.9,0-1.2c0.3-0.3,0.9-0.3,1.2,0
			l8.4,8.9c0.3,0.3,0.3,0.9,0,1.2C53.1,64.8,52.9,64.8,52.7,64.8z"/>
	</g>
</g>
<g id="XMLID_11_">
	<g id="XMLID_14_">
		<path id="XMLID_35_" class="st1" d="M106.8,56h-22c-0.5,0-0.8-0.5-0.8-1s0.4-1,0.8-1h22c0.5,0,0.8,0.5,0.8,1S107.3,56,106.8,56z"
			/>
	</g>
	<g id="XMLID_13_">
		<path id="XMLID_34_" class="st1" d="M106.8,56c-0.2,0-0.4-0.1-0.6-0.3l-8.4-8.9c-0.3-0.3-0.3-0.9,0-1.2c0.3-0.3,0.9-0.3,1.2,0
			l8.4,8.9c0.3,0.3,0.3,0.9,0,1.2C107.2,55.9,107,56,106.8,56z"/>
	</g>
	<g id="XMLID_12_">
		<path id="XMLID_33_" class="st1" d="M98.4,64.8c-0.2,0-0.4-0.1-0.6-0.2c-0.3-0.3-0.4-0.9,0-1.2l8.4-8.9c0.3-0.3,0.9-0.3,1.2,0
			c0.3,0.3,0.4,0.9,0,1.2L99,64.6C98.8,64.7,98.6,64.8,98.4,64.8z"/>
	</g>
</g>
<g id="XMLID_10_">
	<path id="XMLID_25_" class="st1" d="M151.7,51.1h5.2c-1.6-4.1-5.6-7-10.2-7c-6.1,0-11,4.9-11,11s4.9,11,11,11
		c5.7,0,10.4-4.4,10.9-10h1c-0.5,6.1-5.7,11-11.9,11c-6.6,0-12-5.4-12-12s5.4-12,12-12c4.9,0,9.1,3,11,7.2v-5.2h1v7h-7
		C151.7,52.1,151.7,51.1,151.7,51.1z"/>
	<path id="XMLID_29_" class="st1" d="M146.7,67.3c-6.7,0-12.2-5.5-12.2-12.2s5.5-12.2,12.2-12.2c4.5,0,8.7,2.5,10.8,6.5v-4.5h1.4
		v7.4h-7.4v-1.4h5.1c-1.7-4-5.5-6.6-9.9-6.6c-5.9,0-10.8,4.8-10.8,10.8s4.8,10.8,10.8,10.8c5.5,0,10.2-4.3,10.7-9.8l0-0.2h1.4l0,0.2
		C158.4,62.4,153,67.3,146.7,67.3z M146.7,43.4c-6.5,0-11.8,5.3-11.8,11.8c0,6.5,5.3,11.8,11.8,11.8c6,0,11.1-4.6,11.7-10.5h-0.6
		c-0.6,5.6-5.5,10-11.1,10c-6.2,0-11.2-5-11.2-11.2c0-6.2,5-11.2,11.2-11.2c4.6,0,8.7,2.8,10.4,7.1l0.1,0.3h-5.3v0.6h6.6v-6.6h-0.6
		v6l-0.4-0.9C155.7,46.1,151.4,43.4,146.7,43.4z"/>
</g>
<g id="XMLID_15_">
	
		<rect id="XMLID_78_" x="830" y="14.6" transform="matrix(0.7071 -0.7071 0.7071 0.7071 234.7515 597.3472)" class="st1" width="16.9" height="1.3"/>
</g>
<g id="XMLID_16_">
	
		<rect id="XMLID_76_" x="830" y="14.6" transform="matrix(-0.7071 -0.7071 0.7071 -0.7071 1420.4812 618.9894)" class="st1" width="16.9" height="1.3"/>
</g>
<g id="XMLID_20_">
	
		<rect id="XMLID_74_" x="141.8" y="11.4" transform="matrix(-0.7071 -0.7071 0.7071 -0.7071 244.9395 125.2506)" class="st1" width="13.3" height="1"/>
</g>
<g id="XMLID_19_">
	
		<rect id="XMLID_72_" x="141.8" y="11.4" transform="matrix(-0.7071 0.7071 -0.7071 -0.7071 261.764 -84.6328)" class="st1" width="13.3" height="1"/>
</g>
<g id="XMLID_17_">
	
		<rect id="XMLID_28_" x="5.3" y="-0.6" transform="matrix(0.9373 0.3486 -0.3486 0.9373 5.6574 -1.1836)" class="st1" width="1.7" height="31.5"/>
</g>
<g id="XMLID_18_">
	
		<rect id="XMLID_26_" x="149.2" y="14.3" transform="matrix(0.3482 0.9374 -0.9374 0.3482 121.7036 -144.7711)" class="st1" width="31.5" height="1.7"/>
</g>
<g id="XMLID_22_">
	<path id="XMLID_66_" class="st2" d="M171.3,29.9"/>
</g>
<g id="XMLID_21_">
	<path id="XMLID_64_" class="st2" d="M149.3,0.3"/>
</g>
<polygon id="XMLID_58_" class="st1" points="820.1,45.6 807.8,54 811,54 811,65 818,65 818,59 822,59 822,65 828,65 828,54 
	832.3,54 "/>
</svg>
